<svg id="Layer_1" data-name="Layer 1" xmlns="http://www.w3.org/2000/svg" viewBox="0 0 820.62 786.66"><defs><style>.cls-1{fill:#4e5159;}.cls-2{fill:#31363d;}.cls-3{fill:#f9af1d;}.cls-4{fill:#f49723;}</style></defs><title>Logo4</title><path class="cls-1" d="M155.83,571.39c78.81-99.18,262.95-331.86,262.95-331.86L526,332.26,310.64,601.14l55.63,49.71c-8.68,9.41-19.78,8.72-30.21,5.46-57.61-18-112.77-42.09-166.86-68.7C162.66,584.4,157.59,579,155.83,571.39Z" transform="translate(-111.06 -239.53)"/><path class="cls-1" d="M698,715.31c10.35-14.74,20.7-29.47,33.39-47.52L587.31,553c15.32-44.85,30.73-90,48-140.6L931.67,646.64l-54,63.18C818.45,734,758.64,738,698,715.31Z" transform="translate(-111.06 -239.53)"/><path class="cls-2" d="M698,715.31l179.64-5.49L626.09,1026.19,515.21,939.43Z" transform="translate(-111.06 -239.53)"/><path class="cls-2" d="M155.83,571.39c57.3,24.26,114.43,49,172.07,72.41,11.79,4.79,25.53,4.82,38.37,7.05l89.15,67.3L406.18,857.88,111.06,624.6Z" transform="translate(-111.06 -239.53)"/><path class="cls-3" d="M512.72,694.72,383.48,586.88C453.13,500.28,613.05,301,613.05,301c-24.77,75.83-60.74,186.12-86.45,264.86L656.32,671.87l-31,37.44C584.76,727.64,547.94,717.33,512.72,694.72Z" transform="translate(-111.06 -239.53)"/><path class="cls-4" d="M512.72,694.72l112.57,14.59C567.11,785.78,431.63,964,431.63,964,455.46,884.91,488.89,773.8,512.72,694.72Z" transform="translate(-111.06 -239.53)"/></svg>